<svg width="40" height="40" viewBox="0 0 40 40" fill="none" xmlns="http://www.w3.org/2000/svg">
<g clip-path="url(#clip0_1_178)">
<path fill-rule="evenodd" clip-rule="evenodd" d="M27.9914 13.4764C27.9914 14.2865 27.3346 14.943 26.5247 14.943C25.7148 14.943 25.0581 14.2865 25.0581 13.4764C25.0581 12.6663 25.7148 12.0097 26.5247 12.0097C27.3348 12.0097 27.9914 12.6663 27.9914 13.4764ZM20.0005 24.0746C17.7505 24.0746 15.9265 22.2506 15.9265 20.0005C15.9265 17.7505 17.7505 15.9265 20.0005 15.9265C22.2506 15.9265 24.0746 17.7505 24.0746 20.0005C24.0746 22.2506 22.2506 24.0746 20.0005 24.0746ZM20.0005 13.7242C16.5342 13.7242 13.7242 16.5342 13.7242 20.0005C13.7242 23.4669 16.5342 26.2768 20.0005 26.2768C23.4669 26.2768 26.2768 23.4669 26.2768 20.0005C26.2768 16.5342 23.4669 13.7242 20.0005 13.7242ZM20.0005 9.98061C23.2641 9.98061 23.6506 9.99303 24.9393 10.0518C26.1309 10.1063 26.7781 10.3053 27.2088 10.4727C27.7792 10.6945 28.1864 10.9593 28.6142 11.3871C29.0419 11.8147 29.3068 12.2219 29.5285 12.7925C29.6958 13.2231 29.895 13.8703 29.9494 15.062C30.0083 16.3509 30.0207 16.7374 30.0207 20.0009C30.0207 23.2644 30.0083 23.651 29.9494 24.9397C29.895 26.1313 29.696 26.7785 29.5285 27.2092C29.3068 27.7796 29.0419 28.1868 28.6142 28.6145C28.1866 29.0423 27.7794 29.3072 27.2088 29.5289C26.7781 29.6962 26.1309 29.8954 24.9393 29.9498C23.6506 30.0086 23.2641 30.021 20.0005 30.021C16.7368 30.021 16.3503 30.0086 15.0616 29.9498C13.87 29.8954 13.2227 29.6964 12.7921 29.5289C12.2217 29.3072 11.8145 29.0423 11.3867 28.6145C10.9592 28.1869 10.6941 27.7798 10.4724 27.2092C10.3051 26.7785 10.1059 26.1313 10.0515 24.9397C9.99264 23.6508 9.98023 23.2643 9.98023 20.0009C9.98023 16.7374 9.99264 16.3509 10.0515 15.062C10.1059 13.8703 10.3049 13.2231 10.4724 12.7925C10.6941 12.2221 10.959 11.8149 11.3867 11.3871C11.8143 10.9593 12.2215 10.6945 12.7921 10.4727C13.2227 10.3055 13.87 10.1063 15.0616 10.0518C16.3505 9.99303 16.737 9.98061 20.0005 9.98061ZM20.0005 7.77832C16.6813 7.77832 16.2649 7.79245 14.9614 7.85184C13.6605 7.91124 12.7719 8.11787 11.9946 8.41999C11.1908 8.73223 10.5092 9.15026 9.82974 9.82974C9.15026 10.5092 8.73223 11.1908 8.41999 11.9946C8.11787 12.7721 7.91124 13.6605 7.85184 14.9614C7.79245 16.2649 7.77832 16.6813 7.77832 20.0005C7.77832 23.3198 7.79245 23.7362 7.85184 25.0397C7.91124 26.3406 8.11787 27.229 8.41999 28.0065C8.73223 28.8103 9.15026 29.4919 9.82974 30.1713C10.5092 30.8508 11.1908 31.2687 11.9946 31.5811C12.7721 31.8832 13.6605 32.0898 14.9614 32.1492C16.2649 32.2086 16.6813 32.2228 20.0005 32.2228C23.3198 32.2228 23.7362 32.2086 25.0397 32.1492C26.3406 32.0898 27.229 31.8832 28.0065 31.5811C28.8103 31.2687 29.4919 30.8508 30.1713 30.1713C30.8508 29.4919 31.2687 28.8103 31.5811 28.0065C31.8832 27.229 32.0898 26.3406 32.1492 25.0397C32.2086 23.7362 32.2228 23.3198 32.2228 20.0005C32.2228 16.6813 32.2086 16.2649 32.1492 14.9614C32.0898 13.6605 31.8832 12.7721 31.5811 11.9946C31.2687 11.1908 30.8508 10.5092 30.1713 9.82974C29.4919 9.15026 28.8103 8.73242 28.0065 8.41999C27.229 8.11787 26.3406 7.91124 25.0397 7.85184C23.7362 7.79245 23.3198 7.77832 20.0005 7.77832Z" fill="#808191"/>
</g>
<defs>
<clipPath id="clip0_1_178">
<rect width="24.4444" height="24.4444" fill="white" transform="translate(7.77832 7.77832)"/>
</clipPath>
</defs>
</svg>
