<svg width="40" height="40" viewBox="0 0 40 40" fill="none" xmlns="http://www.w3.org/2000/svg">
<path d="M30.3605 8.97347L7.20076 17.9926C6.45424 18.2877 6.49764 19.3641 7.27021 19.5898L13.1556 21.3259L15.3518 28.2964C15.5775 29.0255 16.5063 29.2425 17.0358 28.6957L20.0827 25.588L26.0549 29.9717C26.7841 30.5099 27.8258 30.1106 28.0081 29.2252L31.9577 10.319C32.1574 9.39882 31.2459 8.62625 30.3605 8.97347ZM27.4612 13.1662L16.706 22.6801C16.6018 22.7755 16.5324 22.9058 16.515 23.0446L16.0983 26.7252C16.081 26.8467 15.916 26.8641 15.8813 26.7425L14.1799 21.2478C14.1018 20.996 14.206 20.7269 14.4317 20.588L27.1313 12.7061C27.4178 12.5412 27.7216 12.9405 27.4612 13.1662Z" fill="#808191"/>
</svg>
