<svg width="40" height="40" viewBox="0 0 40 40" fill="none" xmlns="http://www.w3.org/2000/svg">
<path fill-rule="evenodd" clip-rule="evenodd" d="M32.016 11.4928C32.8158 12.3567 33.076 14.319 33.076 14.319C33.076 14.319 33.3428 16.6215 33.3428 18.9248V21.0831C33.3428 23.3864 33.076 25.6889 33.076 25.6889C33.076 25.6889 32.8149 27.6504 32.016 28.5127C31.101 29.5336 30.0871 29.6396 29.5144 29.6994C29.4519 29.706 29.3946 29.712 29.3432 29.7185C25.6097 30.0046 20.0039 30.0146 20.0039 30.0146C20.0039 30.0146 13.0672 29.947 10.9331 29.7285C10.8321 29.7084 10.7098 29.6927 10.5712 29.6749C9.89542 29.588 8.83479 29.4517 7.99184 28.5118C7.19209 27.6495 6.9319 25.6881 6.9319 25.6881C6.9319 25.6881 6.66504 23.3864 6.66504 21.0822V18.924C6.66504 16.6215 6.9319 14.319 6.9319 14.319C6.9319 14.319 7.19292 12.3567 7.99184 11.4928C8.91083 10.4681 9.92812 10.3651 10.4996 10.3072C10.5598 10.3011 10.615 10.2955 10.6646 10.2894C14.3973 10 19.9973 10 19.9973 10H20.0098C20.0098 10 25.6097 10 29.3432 10.2894C29.3929 10.2955 29.4482 10.3011 29.5084 10.3072C30.08 10.3651 31.0978 10.4682 32.016 11.4928ZM25.0141 20.0076L16.6748 25.0112V15.0039L25.0141 20.0076Z" fill="#808191"/>
</svg>
